<svg preserveAspectRatio="none" width="100%" height="100%" overflow="visible" style="display: block;" viewBox="0 0 34 34" fill="none" xmlns="http://www.w3.org/2000/svg">
<g id="fi_841364" clip-path="url(#clip0_227_110)">
<path id="Vector" d="M32.0012 22.5382C27.8972 31.1445 21.582 33.0039 17 33.0039C11.8402 33.0039 6.97923 30.4273 3.99095 26.2238C0.982881 21.9805 0.26556 16.6016 1.99876 11.4617L2.31758 10.8043C4.74798 5.00696 10.6449 0.996094 17 0.996094C22.1598 0.996094 27.0208 3.57266 30.0091 7.77617C33.0171 12.0195 33.7344 17.3984 32.0012 22.5382Z" fill="var(--fill-0, #65B1FC)"/>
<path id="Vector_2" d="M32.0012 22.5382C27.8972 31.1445 21.582 33.0039 17 33.0039V0.996094C22.1598 0.996094 27.0208 3.57266 30.0091 7.77617C33.0171 12.0195 33.7344 17.3984 32.0012 22.5382Z" fill="var(--fill-0, #1689FC)"/>
<path id="Vector_3" d="M30.8258 7.19837C27.6383 2.73587 22.4785 0 17 0C10.1668 0 3.91132 4.28984 1.3414 10.605L1.00266 11.3023C-0.826495 16.8722 -0.114288 22.148 3.17422 26.8015C6.36165 31.264 11.5215 34 17 34C23.7535 34 29.9293 29.8098 32.5789 23.6339L32.8777 23.0363C34.8689 17.3705 34.1714 11.9278 30.8258 7.19837ZM4.80781 25.646C1.97897 21.6617 1.32148 16.6215 2.95507 11.7805L3.21406 11.2425C4.82773 7.37767 8.03515 4.38281 11.8601 2.94837C9.44961 6.09609 7.99524 12.2187 8.17461 14.2109C8.15468 14.2707 8.1347 14.3304 8.1347 14.4102C7.61673 21.0839 9.13079 27.5254 11.9796 31.1312C9.13086 30.0952 6.60084 28.1762 4.80781 25.646ZM16.0039 31.8284C15.3067 31.5894 14.6094 31.0648 13.9519 30.3675C11.1629 27.3594 9.6289 21.0043 10.127 14.5695V14.3902C10.127 14.3304 10.1469 14.2508 10.1469 14.1909C10.7245 7.99525 13.1551 3.10781 16.0039 2.17142V31.8284ZM17.9961 31.8085V2.17142C21.064 3.18743 23.634 8.83196 23.9327 15.5656C24.2116 21.7812 22.6578 27.6183 19.9683 30.4473C19.3308 31.1046 18.6735 31.5894 17.9961 31.8085ZM31.0449 22.2195C28.8137 26.9211 25.666 29.8163 22.0204 31.1113C24.6898 27.7445 26.2039 21.7414 25.9249 15.4859C25.6859 10.1867 24.1917 5.61804 22.0203 2.86875C24.8691 3.90462 27.3991 5.82383 29.1921 8.35384C32.021 12.3382 32.6785 17.3785 31.0449 22.2195Z" fill="var(--fill-0, #96EBE6)"/>
<path id="Vector_4" d="M30.8258 7.19837C27.6383 2.73587 22.4785 0 17 0V34C23.7535 34 29.9293 29.8098 32.5789 23.6339L32.8777 23.0363C34.8689 17.3705 34.1714 11.9278 30.8258 7.19837ZM17.9961 31.8085V2.17142C21.064 3.18743 23.634 8.83196 23.9327 15.5656C24.2117 21.7812 22.6578 27.6183 19.9683 30.4473C19.3308 31.1046 18.6735 31.5894 17.9961 31.8085ZM31.0449 22.2195C28.8137 26.9211 25.666 29.8163 22.0204 31.1113C24.6898 27.7445 26.2039 21.7414 25.9249 15.4859C25.6859 10.1867 24.1917 5.61804 22.0203 2.86875C24.8691 3.90462 27.3992 5.82383 29.1921 8.35384C32.021 12.3382 32.6785 17.3785 31.0449 22.2195Z" fill="var(--fill-0, #00C8C8)"/>
<path id="Vector_5" d="M30.9453 10.0273H3.05469C1.40111 10.0273 0 11.362 0 13.0156V20.9844C0 22.6378 1.40111 23.9727 3.05469 23.9727H30.9453C32.5989 23.9727 34 22.6378 34 20.9844V13.0156C34 11.362 32.5989 10.0273 30.9453 10.0273Z" fill="var(--fill-0, #0053BF)"/>
<path id="Vector_6" d="M34 13.0156V20.9844C34 22.6378 32.5989 23.9727 30.9453 23.9727H17V10.0273H30.9453C32.5989 10.0273 34 11.362 34 13.0156Z" fill="var(--fill-0, #05377F)"/>
<path id="Vector_7" d="M21.8809 15.446L19.8887 19.4304C19.7094 19.7691 19.3707 19.9883 18.9922 19.9883C18.6137 19.9883 18.275 19.7691 18.0957 19.4304L17 17.2391L15.9043 19.4304C15.5657 20.1078 14.4499 20.1078 14.1113 19.4304L12.1191 15.446C11.88 14.9679 12.0793 14.3703 12.5773 14.1113C13.0555 13.8723 13.6531 14.0714 13.912 14.5695L15.0078 16.7609L16.1035 14.5695C16.2829 14.2309 16.6415 14.0515 17 14.0515C17.3585 14.0515 17.7172 14.2309 17.8965 14.5695L18.9922 16.7609L20.0879 14.5695C20.3469 14.0714 20.9445 13.8723 21.4226 14.1113C21.9206 14.3703 22.1199 14.9679 21.8809 15.446Z" fill="var(--fill-0, #E1F1FA)"/>
<path id="Vector_8" d="M28.9531 19.9883C28.5757 19.9883 28.2314 19.7752 28.0621 19.4377L26.9609 17.2354L25.8598 19.4377C25.5212 20.1128 24.4162 20.1128 24.0777 19.4377L22.1692 15.6197C22.0457 15.4679 21.9659 15.2802 21.9522 15.0739C21.9173 14.5253 22.3034 14.0535 22.852 14.0175C23.2684 14.0079 23.6886 14.2043 23.8675 14.5623L24.9687 16.7646L26.0699 14.5623C26.4084 13.8872 27.5134 13.8872 27.852 14.5623L28.9531 16.7646L30.0543 14.5623C30.3014 14.0691 30.8996 13.8736 31.3908 14.1168C31.883 14.3629 32.0825 14.9611 31.8364 15.4533L29.8442 19.4377C29.6749 19.7752 29.3306 19.9883 28.9531 19.9883Z" fill="var(--fill-0, #BFE1FF)"/>
<path id="Vector_9" d="M11.0877 14.0136C10.6957 14.0097 10.3114 14.2043 10.1324 14.5623L9.03125 16.7646L7.9301 14.5623C7.57131 13.8471 6.5029 13.8525 6.14803 14.5623L5.04688 16.7646L3.94573 14.5623C3.69863 14.0691 3.09945 13.8736 2.60917 14.1168C2.11697 14.3629 1.91755 14.9611 2.16365 15.4533L4.15584 19.4377C4.32511 19.7752 4.66942 19.9883 5.04688 19.9883C5.42433 19.9883 5.76865 19.7752 5.93792 19.4377L7.03906 17.2354L8.14021 19.4377C8.30948 19.7752 8.6538 19.9883 9.03125 19.9883C9.4087 19.9883 9.75302 19.7752 9.92229 19.4377L11.7987 15.6848C11.9408 15.5233 12.0322 15.3103 12.0478 15.0739C12.0828 14.5253 11.6363 14.0496 11.0877 14.0136Z" fill="var(--fill-0, #E1F1FA)"/>
<path id="Vector_10" d="M21.8809 15.446L19.8887 19.4304C19.7094 19.7691 19.3707 19.9883 18.9922 19.9883C18.6137 19.9883 18.275 19.7691 18.0957 19.4304L17 17.2391V14.0515C17.3586 14.0515 17.7172 14.2309 17.8965 14.5695L18.9922 16.7609L20.0879 14.5695C20.3469 14.0714 20.9445 13.8723 21.4226 14.1113C21.9206 14.3703 22.1199 14.9679 21.8809 15.446Z" fill="var(--fill-0, #BFE1FF)"/>
</g>
<defs>
<clipPath id="clip0_227_110">
<rect width="34" height="34" fill="white"/>
</clipPath>
</defs>
</svg>
