<svg preserveAspectRatio="none" width="100%" height="100%" overflow="visible" style="display: block;" viewBox="0 0 91.3145 17.0247" fill="none" xmlns="http://www.w3.org/2000/svg">
<g id="Frame 23">
<path id="Star 1" d="M7.77639 2.2651C8.00804 1.55214 9.01669 1.55215 9.24834 2.2651L10.2498 5.34718C10.3534 5.66603 10.6505 5.8819 10.9857 5.8819H14.2264C14.9761 5.8819 15.2878 6.84118 14.6813 7.28181L12.0595 9.18664C11.7883 9.3837 11.6748 9.73299 11.7784 10.0518L12.7798 13.1339C13.0115 13.8469 12.1955 14.4397 11.589 13.9991L8.96723 12.0943C8.696 11.8972 8.32873 11.8972 8.05751 12.0943L5.43573 13.9991C4.82926 14.4397 4.01325 13.8469 4.2449 13.1339L5.24633 10.0518C5.34993 9.73299 5.23644 9.3837 4.96521 9.18664L2.34344 7.28181C1.73696 6.84118 2.04865 5.8819 2.7983 5.8819H6.03899C6.37424 5.8819 6.67136 5.66603 6.77496 5.34718L7.77639 2.2651Z" fill="var(--fill-0, #D0833D)"/>
<path id="Star 2" d="M26.3488 2.26529C26.5805 1.55233 27.5891 1.55234 27.8208 2.26529L28.8222 5.34737C28.9258 5.66622 29.2229 5.88209 29.5582 5.88209H32.7989C33.5485 5.88209 33.8602 6.84137 33.2537 7.282L30.632 9.18683C30.3607 9.38389 30.2472 9.73318 30.3508 10.052L31.3523 13.1341C31.5839 13.8471 30.7679 14.4399 30.1614 13.9993L27.5397 12.0945C27.2684 11.8974 26.9012 11.8974 26.6299 12.0945L24.0082 13.9993C23.4017 14.4399 22.5857 13.8471 22.8173 13.1341L23.8188 10.052C23.9224 9.73318 23.8089 9.38389 23.5376 9.18683L20.9159 7.282C20.3094 6.84137 20.6211 5.88209 21.3707 5.88209H24.6114C24.9467 5.88209 25.2438 5.66622 25.3474 5.34737L26.3488 2.26529Z" fill="var(--fill-0, #D0833D)"/>
<path id="Star 3" d="M44.9213 2.26529C45.1529 1.55233 46.1616 1.55234 46.3932 2.26529L47.3946 5.34737C47.4982 5.66622 47.7954 5.88209 48.1306 5.88209H51.3713C52.121 5.88209 52.4326 6.84137 51.8262 7.282L49.2044 9.18683C48.9332 9.38389 48.8197 9.73318 48.9233 10.052L49.9247 13.1341C50.1564 13.8471 49.3403 14.4399 48.7339 13.9993L46.1121 12.0945C45.8409 11.8974 45.4736 11.8974 45.2024 12.0945L42.5806 13.9993C41.9741 14.4399 41.1581 13.8471 41.3898 13.1341L42.3912 10.052C42.4948 9.73318 42.3813 9.38389 42.1101 9.18683L39.4883 7.282C38.8818 6.84137 39.1935 5.88209 39.9432 5.88209H43.1839C43.5191 5.88209 43.8162 5.66622 43.9198 5.34737L44.9213 2.26529Z" fill="var(--fill-0, #D0833D)"/>
<path id="Star 4" d="M63.4937 2.26529C63.7253 1.55233 64.734 1.55234 64.9656 2.26529L65.9671 5.34737C66.0707 5.66622 66.3678 5.88209 66.7031 5.88209H69.9437C70.6934 5.88209 71.0051 6.84137 70.3986 7.282L67.7768 9.18683C67.5056 9.38389 67.3921 9.73318 67.4957 10.052L68.4971 13.1341C68.7288 13.8471 67.9128 14.4399 67.3063 13.9993L64.6845 12.0945C64.4133 11.8974 64.046 11.8974 63.7748 12.0945L61.153 13.9993C60.5466 14.4399 59.7306 13.8471 59.9622 13.1341L60.9636 10.052C61.0672 9.73318 60.9537 9.38389 60.6825 9.18683L58.0607 7.282C57.4543 6.84137 57.766 5.88209 58.5156 5.88209H61.7563C62.0915 5.88209 62.3887 5.66622 62.4923 5.34737L63.4937 2.26529Z" fill="var(--fill-0, #D0833D)"/>
<path id="Star 5" d="M82.0661 2.26529C82.2978 1.55233 83.3064 1.55234 83.5381 2.26529L84.5395 5.34737C84.6431 5.66622 84.9402 5.88209 85.2755 5.88209H88.5162C89.2658 5.88209 89.5775 6.84137 88.971 7.282L86.3493 9.18683C86.078 9.38389 85.9645 9.73318 86.0681 10.052L87.0696 13.1341C87.3012 13.8471 86.4852 14.4399 85.8787 13.9993L83.257 12.0945C82.9857 11.8974 82.6185 11.8974 82.3473 12.0945L79.7255 13.9993C79.119 14.4399 78.303 13.8471 78.5346 13.1341L79.5361 10.052C79.6397 9.73318 79.5262 9.38389 79.255 9.18683L76.6332 7.282C76.0267 6.84137 76.3384 5.88209 77.088 5.88209H80.3287C80.664 5.88209 80.9611 5.66622 81.0647 5.34737L82.0661 2.26529Z" fill="var(--fill-0, #D0833D)"/>
</g>
</svg>
