<svg preserveAspectRatio="none" width="100%" height="100%" overflow="visible" style="display: block;" viewBox="0 0 20 20" fill="none" xmlns="http://www.w3.org/2000/svg">
<g id="Group">
<path id="Vector" d="M14.0419 0H5.95811C2.67279 0 0 2.67279 0 5.95811V14.0419C0 17.3272 2.67279 20 5.95811 20H14.0419C17.3272 20 20 17.3272 20 14.0419V5.95811C20 2.67279 17.3272 0 14.0419 0ZM17.988 14.0419C17.988 16.2212 16.2212 17.988 14.0419 17.988H5.95811C3.77875 17.988 2.012 16.2212 2.012 14.0419V5.95811C2.012 3.77871 3.77875 2.012 5.95811 2.012H14.0419C16.2212 2.012 17.988 3.77871 17.988 5.95811V14.0419Z" fill="url(#paint0_linear_227_10)"/>
<path id="Vector_2" d="M9.99999 4.82707C7.14776 4.82707 4.82728 7.14754 4.82728 9.99974C4.82728 12.8519 7.14776 15.1725 9.99999 15.1725C12.8522 15.1725 15.1727 12.852 15.1727 9.99974C15.1727 7.1475 12.8522 4.82707 9.99999 4.82707ZM9.99999 13.1605C8.25437 13.1605 6.83928 11.7454 6.83928 9.99978C6.83928 8.25415 8.2544 6.83907 9.99999 6.83907C11.7456 6.83907 13.1607 8.25415 13.1607 9.99978C13.1607 11.7454 11.7456 13.1605 9.99999 13.1605Z" fill="url(#paint1_linear_227_10)"/>
<path id="Vector_3" d="M15.1827 6.10593C15.8673 6.10593 16.4222 5.55099 16.4222 4.86644C16.4222 4.18189 15.8673 3.62695 15.1827 3.62695C14.4982 3.62695 13.9432 4.18189 13.9432 4.86644C13.9432 5.55099 14.4982 6.10593 15.1827 6.10593Z" fill="url(#paint2_linear_227_10)"/>
</g>
<defs>
<linearGradient id="paint0_linear_227_10" x1="10" y1="19.9418" x2="10" y2="0.155343" gradientUnits="userSpaceOnUse">
<stop stop-color="#E09B3D"/>
<stop offset="0.3" stop-color="#C74C4D"/>
<stop offset="0.6" stop-color="#C21975"/>
<stop offset="1" stop-color="#7024C4"/>
</linearGradient>
<linearGradient id="paint1_linear_227_10" x1="9.99999" y1="19.9416" x2="9.99999" y2="0.155123" gradientUnits="userSpaceOnUse">
<stop stop-color="#E09B3D"/>
<stop offset="0.3" stop-color="#C74C4D"/>
<stop offset="0.6" stop-color="#C21975"/>
<stop offset="1" stop-color="#7024C4"/>
</linearGradient>
<linearGradient id="paint2_linear_227_10" x1="15.1827" y1="19.9421" x2="15.1827" y2="0.155661" gradientUnits="userSpaceOnUse">
<stop stop-color="#E09B3D"/>
<stop offset="0.3" stop-color="#C74C4D"/>
<stop offset="0.6" stop-color="#C21975"/>
<stop offset="1" stop-color="#7024C4"/>
</linearGradient>
</defs>
</svg>
