<svg width="34" height="34" viewBox="0 0 34 34" fill="none" xmlns="http://www.w3.org/2000/svg">
<g clip-path="url(#clip0_113_871)">
<path d="M34 17C34 25.4854 27.783 32.5185 19.6562 33.7935V21.9141H23.6174L24.3711 17H19.6562V13.8112C19.6562 12.4664 20.315 11.1562 22.4267 11.1562H24.5703V6.97266C24.5703 6.97266 22.6246 6.64062 20.7646 6.64062C16.8818 6.64062 14.3438 8.99406 14.3438 13.2547V17H10.0273V21.9141H14.3438V33.7935C6.21695 32.5185 0 25.4854 0 17C0 7.61148 7.61148 0 17 0C26.3885 0 34 7.61148 34 17Z" fill="#1877F2"/>
<path d="M23.6174 21.9141L24.3711 17H19.6562V13.8111C19.6562 12.4667 20.3149 11.1562 22.4267 11.1562H24.5703V6.97266C24.5703 6.97266 22.6249 6.64062 20.7649 6.64062C16.8817 6.64062 14.3438 8.99406 14.3438 13.2547V17H10.0273V21.9141H14.3438V33.7934C15.2093 33.9292 16.0963 34 17 34C17.9037 34 18.7907 33.9292 19.6562 33.7934V21.9141H23.6174Z" fill="white"/>
</g>
<defs>
<clipPath id="clip0_113_871">
<rect width="34" height="34" fill="white"/>
</clipPath>
</defs>
</svg>
