<svg preserveAspectRatio="none" width="100%" height="100%" overflow="visible" style="display: block;" viewBox="0 0 34 34" fill="none" xmlns="http://www.w3.org/2000/svg">
<g id="linkedin">
<path id="background" d="M29.3636 0H4.63636C2.07577 0 0 2.07577 0 4.63636V29.3636C0 31.9242 2.07577 34 4.63636 34H29.3636C31.9242 34 34 31.9242 34 29.3636V4.63636C34 2.07577 31.9242 0 29.3636 0Z" fill="var(--fill-0, #0077B5)"/>
<g id="icon">
<path id="Vector" d="M12.2477 9.27273C12.2477 9.84584 12.0778 10.4061 11.7594 10.8826C11.441 11.3591 10.9884 11.7306 10.4589 11.9499C9.92942 12.1692 9.34679 12.2266 8.78468 12.1148C8.22258 12.003 7.70625 11.727 7.301 11.3217C6.89574 10.9165 6.61976 10.4001 6.50795 9.83805C6.39614 9.27594 6.45353 8.69331 6.67285 8.16382C6.89217 7.63432 7.26358 7.18176 7.74011 6.86335C8.21664 6.54495 8.77688 6.375 9.35 6.375C10.1185 6.375 10.8556 6.6803 11.399 7.22372C11.9424 7.76715 12.2477 8.5042 12.2477 9.27273Z" fill="var(--fill-0, white)"/>
<path id="Vector_2" d="M11.5909 14.1023V26.9044C11.5914 26.9989 11.5733 27.0925 11.5375 27.1799C11.5017 27.2673 11.449 27.3468 11.3824 27.4137C11.3158 27.4807 11.2366 27.5338 11.1494 27.5701C11.0622 27.6063 10.9687 27.625 10.8742 27.625H7.82C7.72556 27.6253 7.632 27.6069 7.54469 27.5708C7.45739 27.5348 7.37807 27.4819 7.31128 27.4151C7.2445 27.3483 7.19158 27.269 7.15555 27.1817C7.11953 27.0944 7.10111 27.0008 7.10137 26.9064V14.1023C7.10137 13.9117 7.17708 13.7289 7.31185 13.5941C7.44662 13.4594 7.62941 13.3836 7.82 13.3836H10.8742C11.0645 13.3842 11.2468 13.4601 11.3811 13.5948C11.5155 13.7295 11.5909 13.912 11.5909 14.1023Z" fill="var(--fill-0, white)"/>
<path id="Vector_3" d="M27.5555 20.767V26.9643C27.5557 27.0512 27.5388 27.1372 27.5057 27.2175C27.4726 27.2977 27.4239 27.3707 27.3625 27.4321C27.3011 27.4935 27.2282 27.5421 27.1479 27.5752C27.0676 27.6083 26.9816 27.6253 26.8948 27.625H23.6107C23.5239 27.6253 23.4378 27.6083 23.3576 27.5752C23.2773 27.5421 23.2043 27.4935 23.1429 27.4321C23.0815 27.3707 23.0329 27.2977 22.9998 27.2175C22.9667 27.1372 22.9498 27.0512 22.95 26.9643V20.9583C22.95 20.0619 23.2127 17.0328 20.6067 17.0328C18.588 17.0328 18.1765 19.1057 18.0953 20.0368V26.9643C18.0954 27.1379 18.0271 27.3045 17.9053 27.4281C17.7834 27.5517 17.6179 27.6225 17.4443 27.625H14.2723C14.1856 27.625 14.0998 27.6079 14.0197 27.5747C13.9397 27.5414 13.867 27.4927 13.8058 27.4314C13.7446 27.37 13.6961 27.2971 13.6631 27.217C13.6301 27.1369 13.6133 27.051 13.6135 26.9643V14.0462C13.6133 13.9596 13.6301 13.8737 13.6631 13.7936C13.6961 13.7134 13.7446 13.6406 13.8058 13.5792C13.867 13.5178 13.9397 13.4691 14.0197 13.4359C14.0998 13.4027 14.1856 13.3856 14.2723 13.3856H17.4443C17.6195 13.3856 17.7876 13.4552 17.9115 13.5791C18.0354 13.703 18.105 13.871 18.105 14.0462V15.1628C18.8546 14.0385 19.9653 13.1711 22.3357 13.1711C27.5864 13.1711 27.5555 18.0741 27.5555 20.767Z" fill="var(--fill-0, white)"/>
</g>
</g>
</svg>
