<svg preserveAspectRatio="none" width="100%" height="100%" overflow="visible" style="display: block;" viewBox="0 0 34 34" fill="none" xmlns="http://www.w3.org/2000/svg">
<g id="fi_616494">
<path id="Vector" d="M14.3475 33.8217L27.4619 11.2407C27.7588 10.7294 27.3377 10.1003 26.7519 10.18L18.0285 11.3657L20.1128 0.423123C20.183 0.0542363 19.7074 -0.157135 19.4807 0.142158L6.58636 17.1627C6.21076 17.6585 6.60847 18.3634 7.22698 18.2983L16.8445 17.2859L13.6916 33.5759C13.6155 33.9688 14.1464 34.1679 14.3475 33.8217Z" fill="var(--fill-0, #FFDC64)"/>
<path id="Vector_2" d="M10.6187 15.9565C10.3778 15.9758 10.2178 15.7125 10.3459 15.5076L19.9867 0.0823999C19.8432 -0.0310884 19.6175 -0.038393 19.4807 0.142099L6.58636 17.1627C6.21076 17.6585 6.60847 18.3633 7.22698 18.2982L16.8445 17.2859L13.6916 33.5759C13.6491 33.7956 13.7973 33.9502 13.9705 33.9872L19.3733 16.8911C19.6266 16.0898 18.9876 15.287 18.1499 15.354L10.6187 15.9565Z" fill="var(--fill-0, #FFC850)"/>
</g>
</svg>
