<svg preserveAspectRatio="none" width="100%" height="100%" overflow="visible" style="display: block;" viewBox="0 0 34 34" fill="none" xmlns="http://www.w3.org/2000/svg">
<g id="fi_174883" clip-path="url(#clip0_0_33)">
<path id="Vector" d="M26.9387 4.97043H7.06138C3.16149 4.97043 1.52588e-05 8.1319 1.52588e-05 12.0318V21.9683C1.52588e-05 25.8682 3.16149 29.0297 7.06138 29.0297H26.9387C30.8385 29.0297 34 25.8682 34 21.9683V12.0318C34 8.1319 30.8385 4.97043 26.9387 4.97043ZM22.1631 17.4835L12.8659 21.9177C12.6181 22.0359 12.332 21.8553 12.332 21.5808V12.4352C12.332 12.1569 12.6256 11.9765 12.8739 12.1023L22.1711 16.8137C22.4476 16.9537 22.4428 17.3502 22.1631 17.4835Z" fill="var(--fill-0, #F61C0D)"/>
</g>
<defs>
<clipPath id="clip0_0_33">
<rect width="34" height="34" fill="white"/>
</clipPath>
</defs>
</svg>
