<svg width="34" height="34" viewBox="0 0 34 34" fill="none" xmlns="http://www.w3.org/2000/svg">
<g clip-path="url(#clip0_114_876)">
<path d="M29.3636 0H4.63636C2.07577 0 0 2.07577 0 4.63636V29.3636C0 31.9242 2.07577 34 4.63636 34H29.3636C31.9242 34 34 31.9242 34 29.3636V4.63636C34 2.07577 31.9242 0 29.3636 0Z" fill="#0077B5"/>
<path d="M12.2477 9.27273C12.2477 9.84584 12.0778 10.4061 11.7594 10.8826C11.441 11.3591 10.9884 11.7306 10.4589 11.9499C9.92942 12.1692 9.34678 12.2266 8.78468 12.1148C8.22258 12.003 7.70625 11.727 7.301 11.3217C6.89574 10.9165 6.61976 10.4001 6.50795 9.83805C6.39614 9.27594 6.45353 8.69331 6.67285 8.16382C6.89217 7.63432 7.26358 7.18176 7.74011 6.86335C8.21664 6.54495 8.77688 6.375 9.35 6.375C10.1185 6.375 10.8556 6.6803 11.399 7.22372C11.9424 7.76715 12.2477 8.5042 12.2477 9.27273Z" fill="white"/>
<path d="M11.5909 14.1024V26.9046C11.5914 26.999 11.5732 27.0926 11.5374 27.18C11.5016 27.2674 11.4489 27.3469 11.3823 27.4139C11.3157 27.4808 11.2365 27.534 11.1493 27.5702C11.0621 27.6065 10.9686 27.6252 10.8742 27.6252H7.81996C7.72551 27.6254 7.63195 27.607 7.54465 27.571C7.45734 27.5349 7.37802 27.482 7.31124 27.4152C7.24445 27.3485 7.19153 27.2691 7.15551 27.1818C7.11948 27.0945 7.10107 27.001 7.10132 26.9065V14.1024C7.10132 13.9118 7.17703 13.729 7.31181 13.5943C7.44658 13.4595 7.62936 13.3838 7.81996 13.3838H10.8742C11.0644 13.3843 11.2467 13.4602 11.3811 13.595C11.5154 13.7297 11.5909 13.9122 11.5909 14.1024Z" fill="white"/>
<path d="M27.5555 20.7668V26.9641C27.5557 27.0509 27.5388 27.1369 27.5057 27.2172C27.4726 27.2975 27.4239 27.3704 27.3625 27.4318C27.3011 27.4932 27.2282 27.5419 27.1479 27.575C27.0676 27.6081 26.9816 27.625 26.8948 27.6248H23.6107C23.5239 27.625 23.4378 27.6081 23.3576 27.575C23.2773 27.5419 23.2043 27.4932 23.1429 27.4318C23.0815 27.3704 23.0329 27.2975 22.9998 27.2172C22.9667 27.1369 22.9498 27.0509 22.95 26.9641V20.9581C22.95 20.0617 23.2127 17.0326 20.6067 17.0326C18.588 17.0326 18.1765 19.1054 18.0953 20.0366V26.9641C18.0954 27.1376 18.0271 27.3042 17.9053 27.4279C17.7834 27.5515 17.6179 27.6222 17.4443 27.6248H14.2723C14.1856 27.6248 14.0998 27.6077 14.0197 27.5744C13.9397 27.5412 13.867 27.4925 13.8058 27.4311C13.7446 27.3698 13.6961 27.2969 13.6631 27.2168C13.6301 27.1366 13.6133 27.0508 13.6135 26.9641V14.046C13.6133 13.9593 13.6301 13.8735 13.6631 13.7933C13.6961 13.7132 13.7446 13.6403 13.8058 13.579C13.867 13.5176 13.9397 13.4689 14.0197 13.4357C14.0998 13.4024 14.1856 13.3853 14.2723 13.3853H17.4443C17.6195 13.3853 17.7876 13.4549 17.9115 13.5788C18.0354 13.7027 18.105 13.8708 18.105 14.046V15.1626C18.8546 14.0383 19.9653 13.1709 22.3357 13.1709C27.5864 13.1709 27.5555 18.0739 27.5555 20.7668Z" fill="white"/>
</g>
<defs>
<clipPath id="clip0_114_876">
<rect width="34" height="34" fill="white"/>
</clipPath>
</defs>
</svg>
