<svg width="54" height="62" viewBox="0 0 54 62" fill="none" xmlns="http://www.w3.org/2000/svg">
<path d="M40.0504 3.47209C39.9243 3.39949 39.7668 3.48117 39.7533 3.62638C39.4247 7.36543 39.6317 13.2372 39.8658 17.5072C40.0593 21.0602 39.2807 24.5905 37.6063 27.7215L35.6574 31.3653C30.7784 38.5757 30.4453 43.7759 30.4453 43.7759C29.392 41.9653 28.8924 39.9279 28.6989 38.0039C28.3433 34.4736 29.014 30.9115 30.5218 27.7034L33.569 21.2145C34.7842 18.6234 35.6799 15.8918 36.1705 13.0648C37.1067 7.674 36.2875 4.1346 35.3783 2.0518C35.1218 1.47097 34.6222 1.03082 34.0145 0.862921C32.7138 0.499906 31.368 0.245795 29.9862 0.114202C15.1645 -1.3424 1.8146 11.3041 0.167247 28.3613C-0.876978 39.1837 3.04338 49.1848 9.83535 55.4196C10.4835 54.807 11.2217 54.0492 11.9238 53.1825C13.0535 51.7804 14.2598 50.4417 15.4931 49.1303L17.9776 46.4985C19.3414 45.0555 20.3181 43.2722 20.7367 41.3255C21.1778 39.2609 21.1058 36.6199 19.4494 33.7566L16.7623 28.1118C15.6596 25.793 15.1105 23.2337 15.241 20.6654C15.3805 18.0472 16.2132 15.1476 18.9228 13.6637C18.9228 13.6637 17.523 15.7375 21.6369 23.8236L24.8821 30.2263C24.8821 30.2263 25.1836 30.8072 25.5437 31.8145C27.8977 38.3579 26.3449 45.6908 21.6144 50.7639L20.7727 51.6669C19.715 52.8059 18.5852 53.8768 17.3745 54.8478C16.3167 55.7009 14.8944 57.0622 14.2148 58.6822C17.1719 60.4201 20.4756 61.5409 24.0134 61.8858C38.8351 63.3424 52.185 50.6959 53.8323 33.6387C55.0746 20.7789 49.3088 9.08068 40.0413 3.48571L40.0504 3.47209ZM26.795 24.9445C26.7095 22.5395 26.0073 20.198 24.8236 18.1107L22.6901 14.3535C18.8688 7.88273 25.6607 3.4131 25.6607 3.4131C25.6247 3.51293 25.5887 3.60822 25.5572 3.70805C24.684 6.33538 25.0621 9.22589 26.4799 11.5991L27.7402 13.7091C28.1363 14.4578 28.4649 15.2429 28.6899 16.0597C30.2382 21.7681 26.7725 26.3602 26.7725 26.3602C26.804 25.8747 26.8085 25.4028 26.795 24.9445Z" fill="white"/>
</svg>
