<svg width="163" height="40" viewBox="0 0 163 40" fill="none" xmlns="http://www.w3.org/2000/svg">
<path d="M103.603 23.9346H102.763C102.604 26.1249 100.784 27.8197 98.5947 27.8197H90.2768V30.6243H103.322L103.603 23.9346Z" fill="white"/>
<path d="M0.214661 0.455566V1.45096C1.44223 1.45096 2.43726 2.4486 2.43726 3.67939V27.5397C2.43726 28.7705 1.44223 29.7682 0.214661 29.7682V30.6201H10.3393V29.9094C9.19002 29.9094 8.2576 28.9745 8.2576 27.8222V3.49331C8.2576 2.26252 9.25263 1.26489 10.4802 1.26489H10.5741V0.457808H0.214661V0.455566Z" fill="white"/>
<path d="M59.7955 0.455566V1.45096C61.023 1.45096 62.018 2.4486 62.018 3.67939V27.5397C62.018 28.7705 61.023 29.7682 59.7955 29.7682V30.6201H69.9201V29.9094C68.7708 29.9094 67.8384 28.9745 67.8384 27.8222V3.49331C67.8384 2.26252 68.8334 1.26489 70.061 1.26489H70.1549V0.457808H59.7932L59.7955 0.455566Z" fill="white"/>
<path d="M83.0522 0.455566V1.45096C84.2798 1.45096 85.2748 2.4486 85.2748 3.67939V27.5397C85.2748 28.7705 84.2798 29.7682 83.0522 29.7682V30.6201H93.1769V29.9094C92.0276 29.9094 91.0952 28.9745 91.0952 27.8222V3.49331C91.0952 2.26252 92.0902 1.26489 93.3178 1.26489H93.4117V0.457808H83.05L83.0522 0.455566Z" fill="white"/>
<path d="M125.458 29.7054C126.424 29.461 127.137 28.5844 127.137 27.542V3.68163C127.137 3.06736 126.889 2.50913 126.487 2.10559C126.084 1.70205 125.528 1.4532 124.915 1.4532V0.455566H133.094V1.26264H132.998C131.77 1.26264 130.775 2.26028 130.775 3.49107V30.6245H125.993L125.46 29.7054H125.458Z" fill="white"/>
<path d="M115.454 29.7861V30.6245H107.282V29.7816C108.592 29.7816 109.652 28.7189 109.652 27.4052V3.8139C109.652 2.5024 108.59 1.43751 107.282 1.43751V0.455566H113.013V27.4097C113.013 28.7212 114.075 29.7861 115.383 29.7861H115.454Z" fill="white"/>
<path d="M7.45264 16.4895L17.8344 3.84753C18.6193 2.89249 17.9418 1.4532 16.7075 1.4532H16.5845V0.455566H25.9042V1.45096H24.7862C24.5358 1.45096 24.2965 1.56306 24.1355 1.75586L15.4017 12.2187L22.6888 25.0737L24.4419 28.1069C24.9673 29.0171 25.9378 29.5776 26.9864 29.5776V30.6245H19.4936C16.5376 27.2079 14.5117 22.6995 11.4372 17.1352L8.14804 20.9329L7.45487 16.4895H7.45264Z" fill="white"/>
<path d="M46.2944 1.45096L54.7868 27.4904C55.1803 28.6988 56.305 29.5171 57.5729 29.5171V30.6245H46.5426V29.6942C47.6539 29.6942 48.4544 28.6293 48.1503 27.5577L42.1108 6.2867L35.3849 26.9008C34.922 28.3154 35.9752 29.7704 37.4599 29.7704V30.6223H28.7775V29.7704C30.0319 29.7704 31.1432 28.9521 31.5188 27.7527L39.4209 2.48671C39.611 1.87916 39.1593 1.26264 38.5243 1.26264V0.455566H46.366L46.2653 1.06536C46.243 1.19539 46.2542 1.32766 46.2944 1.45096Z" fill="white"/>
<path d="M48.0474 18.7246H36.8405V21.9215H48.0474V18.7246Z" fill="white"/>
<path d="M99.5003 19.1306V10.9365H98.664C98.664 12.4453 97.4454 13.6671 95.9406 13.6671H89.9101V16.4717H96.0077C97.4722 16.4717 98.6596 17.6622 98.6596 19.1306H99.5003Z" fill="white"/>
<path d="M103.603 7.14534H102.763C102.604 4.95502 100.784 3.26016 98.5947 3.26016H90.2768V0.455566H103.322L103.603 7.14534Z" fill="white"/>
<path d="M76.1564 19.1306V10.9365H75.3201C75.3201 12.4453 74.1015 13.6671 72.5966 13.6671H66.5661V16.4717H72.6637C74.1283 16.4717 75.3156 17.6622 75.3156 19.1306H76.1564Z" fill="white"/>
<path d="M80.2594 7.14534H79.4187C79.2599 4.95502 77.4398 3.26016 75.2508 3.26016H66.9328V0.455566H79.9777L80.2594 7.14534Z" fill="white"/>
<path d="M113.013 0.455566H115.322L127.388 21.3678V30.6245H125.993L112.326 7.04221L113.013 0.455566Z" fill="white"/>
<path d="M155.351 1.71541C155.289 1.67954 155.211 1.7199 155.204 1.79164C155.041 3.63895 155.143 6.53994 155.26 8.64955C155.356 10.4049 154.969 12.1491 154.137 13.696L153.169 15.4963C150.745 19.0586 150.58 21.6278 150.58 21.6278C150.057 20.7333 149.808 19.7267 149.712 18.7761C149.536 17.0319 149.869 15.2721 150.618 13.6871L152.132 10.4812C152.735 9.20105 153.18 7.85144 153.424 6.45475C153.889 3.79139 153.482 2.04273 153.03 1.01371C152.903 0.726744 152.655 0.509282 152.353 0.426333C151.707 0.246982 151.038 0.121437 150.352 0.0564223C142.989 -0.663221 136.357 5.5849 135.538 14.0121C135.019 19.359 136.967 24.3001 140.341 27.3805C140.663 27.0778 141.03 26.7034 141.379 26.2752C141.94 25.5825 142.539 24.9211 143.152 24.2732L144.386 22.9729C145.064 22.26 145.549 21.3789 145.757 20.4172C145.976 19.3971 145.94 18.0923 145.117 16.6777L143.782 13.8888C143.234 12.7432 142.962 11.4788 143.027 10.2099C143.096 8.91633 143.51 7.48377 144.856 6.75068C144.856 6.75068 144.16 7.77522 146.204 11.7702L147.816 14.9335C147.816 14.9335 147.966 15.2205 148.145 15.7182C149.314 18.951 148.543 22.5739 146.193 25.0803L145.775 25.5264C145.249 26.0891 144.688 26.6182 144.086 27.098C143.561 27.5195 142.854 28.192 142.517 28.9924C143.986 29.851 145.627 30.4048 147.385 30.5751C154.748 31.2948 161.38 25.0467 162.198 16.6194C162.815 10.2659 159.951 4.48638 155.347 1.72214L155.351 1.71541ZM148.766 12.324C148.724 11.1358 148.375 9.97898 147.787 8.94772L146.727 7.09144C144.829 3.89452 148.203 1.68627 148.203 1.68627C148.185 1.73559 148.167 1.78267 148.151 1.83199C147.718 3.13004 147.906 4.55812 148.61 5.73062L149.236 6.7731C149.433 7.14301 149.596 7.53085 149.708 7.93439C150.477 10.7547 148.755 13.0235 148.755 13.0235C148.771 12.7836 148.773 12.5504 148.766 12.324Z" fill="white"/>
<path d="M81.25 39.9997C126.123 39.9997 162.5 39.4537 162.5 38.7801C162.5 38.1066 126.123 37.5605 81.25 37.5605C36.3769 37.5605 0 38.1066 0 38.7801C0 39.4537 36.3769 39.9997 81.25 39.9997Z" fill="white"/>
</svg>
