<svg width="17" height="17" viewBox="0 0 17 17" fill="none" xmlns="http://www.w3.org/2000/svg">
<path d="M7.43481 0.691209C7.73416 -0.230102 9.03757 -0.2301 9.33692 0.691211L10.631 4.67399C10.7649 5.08601 11.1488 5.36497 11.5821 5.36497H15.7698C16.7385 5.36497 17.1413 6.60459 16.3576 7.17399L12.9696 9.63548C12.6191 9.89013 12.4725 10.3415 12.6064 10.7535L13.9004 14.7363C14.1998 15.6576 13.1453 16.4237 12.3616 15.8543L8.97365 13.3928C8.62316 13.1382 8.14857 13.1382 7.79808 13.3928L4.41012 15.8543C3.62641 16.4237 2.57193 15.6576 2.87128 14.7363L4.16537 10.7535C4.29924 10.3415 4.15258 9.89013 3.80209 9.63548L0.414139 7.17399C-0.369575 6.60459 0.0332026 5.36497 1.00193 5.36497H5.18967C5.62289 5.36497 6.00685 5.08601 6.14072 4.67399L7.43481 0.691209Z" fill="#D0833D"/>
</svg>
