<svg width="100" height="100" viewBox="0 0 100 100" fill="none" xmlns="http://www.w3.org/2000/svg">
<path d="M92.3281 0L70.5469 10.8281C68.4844 11.8594 67.1875 13.9531 67.1875 16.25C67.1875 17.8438 67.8281 19.3906 68.9531 20.5156L75 26.5625L65.9219 41.6875L58.6875 19.2188L44.8281 23.6719L43.75 20.3125C43.1094 18.3125 41.2656 17.0625 39.2812 17.0625C38.8125 17.0625 38.3281 17.125 37.8594 17.2812C35.3906 18.0781 34.0312 20.7188 34.8281 23.1875C34.1875 21.2031 32.3438 19.9219 30.3594 19.9219C29.8906 19.9219 29.4062 20 28.9219 20.1562C26.4688 20.9531 25.1094 23.5938 25.9062 26.0625C25.2656 24.0781 23.4219 22.7969 21.4375 22.7969C20.9688 22.7969 20.4844 22.875 20 23.0312C17.5312 23.8281 16.1875 26.4688 16.9687 28.9219C16.3437 26.9375 14.5 25.6719 12.5156 25.6719C12.0469 25.6719 11.5625 25.75 11.0781 25.9062C8.60938 26.6875 7.26562 29.3281 8.04688 31.7969L9.125 35.1562L1.5625 37.5938L12.0938 70.3125L17.1875 68.6719V100H43.75V78.125C45.7188 76.6562 47.2812 74.75 48.3438 72.6094C49.4219 70.4688 50 68.0938 50 65.625V58.125L60.9062 54.6094L57.875 60.8281C57.0938 62.375 56.7188 64.0469 56.7188 65.7031C56.7188 68.1875 57.5781 70.6562 59.2344 72.6562C61.3125 75.125 64.3594 76.5625 67.5938 76.5625H81.25L85.9375 100H100V0H92.3281Z" fill="#F4BAA6"/>
<path d="M68.8031 50.6486L66.75 44.2814C64.4375 44.6251 62.2031 44.8439 59.8125 44.2189C54.0625 42.7032 56.875 36.047 43.5938 35.1407C41.125 35.922 38.4844 34.5782 37.7031 32.1095C38.4844 34.5782 37.1406 37.2189 34.6719 38.0001C32.2031 38.797 29.5625 37.4376 28.7656 34.9845C29.5625 37.4376 28.2031 40.0782 25.75 40.8751C23.2812 41.672 20.6406 40.3126 19.8438 37.8439C20.6406 40.3126 19.2812 42.9532 16.8281 43.7501C14.3594 44.547 11.7188 43.1876 10.9219 40.7189L9.125 35.1564L1.5625 37.5939L12.0938 70.3126L17.1875 68.672L39.0625 61.6407V56.2501C39.0625 53.2189 40.2812 50.5001 42.2656 48.5157C44.25 46.5314 46.9688 45.3126 50 45.3126V58.1251L60.9062 54.6095L65.1953 53.2314L69.2188 51.9376L68.8031 50.6486ZM22.6562 57.8126C20.5 57.8126 18.75 56.0626 18.75 53.9064C18.75 51.7501 20.5 50.0001 22.6562 50.0001C24.8125 50.0001 26.5625 51.7501 26.5625 53.9064C26.5625 56.0626 24.8125 57.8126 22.6562 57.8126Z" fill="#6A431F"/>
<path d="M39.0625 61.6406V56.25C39.0625 53.2188 40.2812 50.5 42.2656 48.5156C44.25 46.5312 46.9688 45.3125 50 45.3125V65.625C50 68.0938 49.4219 70.4688 48.3438 72.6094C47.2812 74.75 45.7188 76.6562 43.75 78.125V100H17.1875V68.6719L39.0625 61.6406Z" fill="#E09B8D"/>
<path d="M22.6562 57.8125C24.8136 57.8125 26.5625 56.0636 26.5625 53.9062C26.5625 51.7489 24.8136 50 22.6562 50C20.4989 50 18.75 51.7489 18.75 53.9062C18.75 56.0636 20.4989 57.8125 22.6562 57.8125Z" fill="#D0833D"/>
<path d="M65.9219 41.6876L66.75 44.2814C64.4375 44.6251 62.2031 44.8439 59.8125 44.2189C54.0625 42.7032 56.875 36.047 43.5938 35.1407C46.0625 34.3439 47.4063 31.7032 46.625 29.2345L44.8281 23.672L58.6875 19.2189L65.9219 41.6876Z" fill="#E6E6E6"/>
<path d="M43.5937 35.1409C41.125 35.9221 38.4844 34.5784 37.7031 32.1096L34.8281 23.1877C34.0313 20.719 35.3906 18.0784 37.8594 17.2815C38.3281 17.1252 38.8125 17.0627 39.2812 17.0627C41.2656 17.0627 43.1094 18.3127 43.75 20.3127L44.8281 23.6721L46.625 29.2346C47.4062 31.7034 46.0625 34.344 43.5937 35.1409Z" fill="#E09B8D"/>
<path d="M28.7656 34.9846C29.5625 37.4377 28.2031 40.0784 25.75 40.8752C23.2812 41.6721 20.6406 40.3127 19.8437 37.844L16.9687 28.9221C16.1875 26.469 17.5312 23.8284 20 23.0315C20.4843 22.8752 20.9687 22.7971 21.4375 22.7971C23.4218 22.7971 25.2656 24.0784 25.9062 26.0627L28.7656 34.9846Z" fill="#E09B8D"/>
<path d="M75.4937 18.8315C74.6719 18.5549 73.7891 19.0002 73.5172 19.819C73.2437 20.6377 73.6859 21.5237 74.5047 21.7956C74.5047 21.7956 79.5234 23.4393 79.6859 23.4393C80.3406 23.4393 80.95 23.0252 81.1687 22.3706C81.4422 21.5518 81 20.6659 80.1812 20.394L75.4937 18.8315Z" fill="#E09B8D"/>
<path d="M33.5938 48.4375C34.8882 48.4375 35.9375 47.3882 35.9375 46.0938C35.9375 44.7993 34.8882 43.75 33.5938 43.75C32.2993 43.75 31.25 44.7993 31.25 46.0938C31.25 47.3882 32.2993 48.4375 33.5938 48.4375Z" fill="#D0833D"/>
<path d="M37.5 68.7499C38.3625 68.7499 39.0625 68.0514 39.0625 67.1874V61.6405L35.9375 62.6452V67.1874C35.9375 68.0514 36.6375 68.7499 37.5 68.7499Z" fill="#F4BAA6"/>
<path d="M84.2109 50.8641C83.825 50.0938 82.8875 49.7829 82.1141 50.1657C78.7109 51.8657 72.25 51.2438 68.8031 50.6501L69.2188 51.9391L65.1953 53.2329C66.8109 53.636 70.5359 54.6235 75.9812 54.6235C78.3359 54.6235 80.9906 54.2219 83.5109 52.9626C84.2828 52.5766 84.5953 51.6376 84.2094 50.8657L84.2109 50.8641Z" fill="#E09B8D"/>
</svg>
