<svg width="100" height="100" viewBox="0 0 100 100" fill="none" xmlns="http://www.w3.org/2000/svg">
<path fill-rule="evenodd" clip-rule="evenodd" d="M56.6044 47.2883L44.5766 41.3817L21.88 76.2621L28.1652 78.1605L56.6044 47.2883Z" fill="#4187B5"/>
<path fill-rule="evenodd" clip-rule="evenodd" d="M76.864 31.4394L81.7122 27.4182L82.12 26.2482C83.22 23.0922 87.1418 21.2916 88.4872 26.1162C89.0038 27.9698 88.3626 30.0834 86.8 31.2278L79.6092 36.4936C77.1212 38.3154 74.197 38.5722 71.5294 37.2034L61.193 31.8986L65.1766 22.7346L76.864 31.4394Z" fill="#4187B5"/>
<path fill-rule="evenodd" clip-rule="evenodd" d="M66.6299 21.3876C68.7357 24.034 70.3351 28.1902 67.1439 31.3304L55.6859 42.6048L66.0167 43.7206C67.2613 43.855 70.3337 44.3102 70.3937 45.6538L71.6735 74.2912L65.0111 71.7786L62.5619 52.2304L49.7697 53.2368C46.9417 52.647 44.6781 51.449 43.0447 49.5724C41.0795 47.315 41.0125 43.8058 42.8883 41.3818L56.1805 24.2048L49.5757 17.0966L42.1241 18.1062C41.6517 18.1702 40.2981 19.9676 38.8435 20.517C36.5743 21.3742 33.9727 20.923 33.4385 19.6116C32.5615 17.4596 33.7495 14.533 35.8855 14.079L51.2297 10.8178C54.2105 10.184 64.6707 18.9252 66.6299 21.3876Z" fill="#60B7FE"/>
<path fill-rule="evenodd" clip-rule="evenodd" d="M70.2167 9.01383C73.6259 9.13463 76.2759 12.0872 76.1361 15.609C75.9963 19.1308 73.1193 21.888 69.7103 21.767C66.3013 21.6464 63.6513 18.6936 63.7911 15.1716C63.9309 11.6502 66.8079 8.89303 70.2167 9.01383Z" fill="#F0B16E"/>
<path fill-rule="evenodd" clip-rule="evenodd" d="M57.8786 75.7115L45.2302 90.9897L7.81581 71.5355C7.21781 71.2245 7.55561 70.3085 8.21221 70.4599L42.1214 78.2851L54.7698 63.0071L92.1842 82.4613C92.782 82.7723 92.4444 83.6883 91.7878 83.5367L57.8786 75.7115Z" fill="#FFBF31"/>
</svg>
