<svg width="100" height="100" viewBox="0 0 100 100" fill="none" xmlns="http://www.w3.org/2000/svg">
<path d="M87.5 89.0625C88.7432 89.0625 89.9355 89.5564 90.8146 90.4354C91.6936 91.3145 92.1875 92.5068 92.1875 93.75C92.1875 94.9932 91.6936 96.1855 90.8146 97.0646C89.9355 97.9436 88.7432 98.4375 87.5 98.4375H12.5C11.2568 98.4375 10.0645 97.9436 9.18544 97.0646C8.30636 96.1855 7.8125 94.9932 7.8125 93.75C7.8125 92.5068 8.30636 91.3145 9.18544 90.4354C10.0645 89.5564 11.2568 89.0625 12.5 89.0625H87.5Z" fill="#AE672B"/>
<path d="M87.5 68.8438V89.0625H12.5V68.8438H20.3125C21.9147 68.8545 23.4986 69.1848 24.9716 69.8153C26.4445 70.4458 27.7769 71.3638 28.8906 72.5156C31.6491 75.312 34.9357 77.5324 38.5595 79.0479C42.1833 80.5635 46.0721 81.3439 50 81.3439C53.9279 81.3439 57.8167 80.5635 61.4405 79.0479C65.0643 77.5324 68.3509 75.312 71.1094 72.5156C72.2231 71.3638 73.5555 70.4458 75.0284 69.8153C76.5014 69.1848 78.0853 68.8545 79.6875 68.8438H87.5Z" fill="#C4804D"/>
<path d="M50 28.125C50 28.125 53.125 31.25 53.125 39.0625C53.125 46.875 46.875 53.125 46.875 60.9375C46.875 68.75 50 71.875 50 71.875C47.7426 71.8762 45.507 71.4325 43.4212 70.5692C41.3353 69.7059 39.4401 68.4399 37.8439 66.8437C36.2476 65.2474 34.9816 63.3522 34.1183 61.2663C33.255 59.1805 32.8113 56.9449 32.8125 54.6875V45.3125C32.8113 43.0551 33.255 40.8195 34.1183 38.7337C34.9816 36.6478 36.2476 34.7526 37.8439 33.1564C39.4401 31.5601 41.3353 30.2941 43.4212 29.4308C45.507 28.5675 47.7426 28.1238 50 28.125Z" fill="#8E6751"/>
<path d="M50 71.875C50 71.875 46.875 68.75 46.875 60.9375C46.875 53.125 53.125 46.875 53.125 39.0625C53.125 31.25 50 28.125 50 28.125C52.2574 28.1238 54.493 28.5675 56.5788 29.4308C58.6647 30.2941 60.5599 31.5601 62.1561 33.1564C63.7524 34.7526 65.0184 36.6478 65.8817 38.7337C66.745 40.8195 67.1887 43.0551 67.1875 45.3125V54.6875C67.1887 56.9449 66.745 59.1805 65.8817 61.2663C65.0184 63.3522 63.7524 65.2474 62.1561 66.8437C60.5599 68.4399 58.6647 69.7059 56.5788 70.5692C54.493 71.4325 52.2574 71.8762 50 71.875Z" fill="#7C523A"/>
<path d="M87.5 46.4062V68.8437H79.6875C78.0853 68.8545 76.5014 69.1848 75.0284 69.8153C73.5555 70.4458 72.2231 71.3638 71.1094 72.5156C68.3509 75.3119 65.0643 77.5324 61.4405 79.0479C57.8167 80.5634 53.9279 81.3439 50 81.3439C46.0721 81.3439 42.1833 80.5634 38.5595 79.0479C34.9357 77.5324 31.6491 75.3119 28.8906 72.5156C27.7769 71.3638 26.4445 70.4458 24.9716 69.8153C23.4986 69.1848 21.9147 68.8545 20.3125 68.8437H12.5V46.4062C12.5018 41.365 12.8726 36.3307 13.6094 31.3437H20.3125C21.9143 31.3408 23.4987 31.0112 24.9687 30.375C26.4358 29.7241 27.7665 28.8016 28.8906 27.6562C31.6516 24.8642 34.9389 22.6476 38.5624 21.1349C42.1859 19.6221 46.0734 18.8431 50 18.8431C53.9266 18.8431 57.8141 19.6221 61.4376 21.1349C65.0611 22.6476 68.3484 24.8642 71.1094 27.6562C72.2224 28.8101 73.5542 29.7306 75.0271 30.3637C76.5 30.9969 78.0844 31.33 79.6875 31.3437H86.3906C87.1274 36.3307 87.4982 41.365 87.5 46.4062ZM67.1875 54.6875V45.3125C67.1875 40.754 65.3767 36.3823 62.1534 33.1591C58.9301 29.9358 54.5584 28.125 50 28.125C45.4416 28.125 41.0699 29.9358 37.8466 33.1591C34.6233 36.3823 32.8125 40.754 32.8125 45.3125V54.6875C32.8125 59.2459 34.6233 63.6176 37.8466 66.8409C41.0699 70.0641 45.4416 71.875 50 71.875C54.5584 71.875 58.9301 70.0641 62.1534 66.8409C65.3767 63.6176 67.1875 59.2459 67.1875 54.6875Z" fill="#D8CEB2"/>
<path d="M86.3906 31.3438H79.6875C78.0843 31.3301 76.5 30.9969 75.0271 30.3638C73.5542 29.7306 72.2224 28.8102 71.1094 27.6563C68.3484 24.8642 65.0611 22.6477 61.4376 21.1349C57.8141 19.6221 53.9266 18.8432 50 18.8432C46.0734 18.8432 42.1859 19.6221 38.5624 21.1349C34.9389 22.6477 31.6516 24.8642 28.8906 27.6563C27.7665 28.8017 26.4358 29.7241 24.9687 30.375C23.4987 31.0112 21.9143 31.3409 20.3125 31.3438H13.6094C13.75 30.3594 13.9063 29.375 14.0781 28.4063C15.1274 22.4592 16.6905 16.6144 18.75 10.9375H81.25C83.6518 17.5475 85.3742 24.3848 86.3906 31.3438Z" fill="#C4804D"/>
<path d="M18.75 1.5625H81.25V10.9375H18.75V1.5625Z" fill="#AE672B"/>
<path d="M53.8719 63.3672C53.758 63.1965 53.6788 63.005 53.6389 62.8037C53.599 62.6024 53.5992 62.3952 53.6394 62.1939C53.6796 61.9927 53.759 61.8013 53.8732 61.6308C53.9873 61.4602 54.1339 61.3139 54.3047 61.2C55.3814 60.4882 56.2652 59.5211 56.8773 58.3847C57.4893 57.2484 57.8106 55.9782 57.8125 54.6875C57.8125 54.2731 57.9771 53.8757 58.2701 53.5826C58.5632 53.2896 58.9606 53.125 59.375 53.125C59.7894 53.125 60.1868 53.2896 60.4799 53.5826C60.7729 53.8757 60.9375 54.2731 60.9375 54.6875C60.9364 56.4927 60.4885 58.2695 59.6338 59.8595C58.7791 61.4495 57.5441 62.8033 56.0391 63.8C55.6846 63.9942 55.273 64.0572 54.8767 63.9781C54.4803 63.8989 54.1246 63.6826 53.8719 63.3672Z" fill="#8E6751"/>
<path d="M78.125 54.6875C78.125 55.5504 78.8246 56.25 79.6875 56.25C80.5504 56.25 81.25 55.5504 81.25 54.6875V42.1875C81.25 41.3246 80.5504 40.625 79.6875 40.625C78.8246 40.625 78.125 41.3246 78.125 42.1875V54.6875Z" fill="#F4E6CE"/>
<path d="M79.6875 62.5C80.5504 62.5 81.25 61.8004 81.25 60.9375C81.25 60.0746 80.5504 59.375 79.6875 59.375C78.8246 59.375 78.125 60.0746 78.125 60.9375C78.125 61.8004 78.8246 62.5 79.6875 62.5Z" fill="#F4E6CE"/>
<path d="M40.625 46.875C41.0394 46.875 41.4368 46.7103 41.7299 46.4173C42.0229 46.1243 42.1875 45.7269 42.1875 45.3125C42.1894 44.0218 42.5107 42.7516 43.1227 41.6152C43.7348 40.4789 44.6186 39.5117 45.6953 38.8C46.0401 38.57 46.2794 38.2124 46.3606 37.806C46.4417 37.3996 46.3581 36.9775 46.1281 36.6328C45.8981 36.288 45.5406 36.0487 45.1342 35.9675C44.7277 35.8864 44.3057 35.97 43.9609 36.2C42.4559 37.1967 41.2209 38.5504 40.3662 40.1404C39.5115 41.7304 39.0636 43.5073 39.0625 45.3125C39.0625 45.7269 39.2271 46.1243 39.5201 46.4173C39.8132 46.7103 40.2106 46.875 40.625 46.875Z" fill="#7C523A"/>
</svg>
