<svg width="34" height="34" viewBox="0 0 34 34" fill="none" xmlns="http://www.w3.org/2000/svg">
<g clip-path="url(#clip0_114_886)">
<path d="M32.0012 22.5382C27.8972 31.1445 21.582 33.0039 17 33.0039C11.8401 33.0039 6.9792 30.4273 3.99092 26.2238C0.982845 21.9805 0.265525 16.6016 1.99873 11.4617L2.31754 10.8043C4.74795 5.00696 10.6449 0.996094 17 0.996094C22.1598 0.996094 27.0207 3.57266 30.009 7.77617C33.0171 12.0195 33.7344 17.3984 32.0012 22.5382Z" fill="#65B1FC"/>
<path d="M32.0012 22.5382C27.8972 31.1445 21.582 33.0039 17 33.0039V0.996094C22.1598 0.996094 27.0208 3.57266 30.0091 7.77617C33.0171 12.0195 33.7344 17.3984 32.0012 22.5382Z" fill="#1689FC"/>
<path d="M30.8257 7.19837C27.6383 2.73587 22.4785 0 17 0C10.1668 0 3.91129 4.28984 1.34137 10.605L1.00263 11.3023C-0.826527 16.8722 -0.11432 22.148 3.17418 26.8015C6.36162 31.264 11.5215 34 17 34C23.7535 34 29.9293 29.8098 32.5789 23.6339L32.8776 23.0363C34.8689 17.3705 34.1714 11.9278 30.8257 7.19837ZM4.80778 25.646C1.97894 21.6617 1.32145 16.6215 2.95504 11.7805L3.21403 11.2425C4.8277 7.37767 8.03512 4.38281 11.8601 2.94837C9.44957 6.09609 7.99521 12.2187 8.17457 14.2109C8.15465 14.2707 8.13466 14.3304 8.13466 14.4102C7.6167 21.0839 9.13076 27.5254 11.9796 31.1312C9.13083 30.0952 6.60081 28.1762 4.80778 25.646ZM16.0039 31.8284C15.3067 31.5894 14.6093 31.0648 13.9519 30.3675C11.1629 27.3594 9.62887 21.0043 10.1269 14.5695V14.3902C10.1269 14.3304 10.1468 14.2508 10.1468 14.1909C10.7245 7.99525 13.155 3.10781 16.0039 2.17142V31.8284ZM17.9961 31.8085V2.17142C21.064 3.18743 23.634 8.83196 23.9327 15.5656C24.2116 21.7812 22.6578 27.6183 19.9683 30.4473C19.3308 31.1046 18.6735 31.5894 17.9961 31.8085ZM31.0449 22.2195C28.8136 26.9211 25.666 29.8163 22.0203 31.1113C24.6898 27.7445 26.2039 21.7414 25.9249 15.4859C25.6858 10.1867 24.1917 5.61804 22.0203 2.86875C24.8691 3.90462 27.3991 5.82383 29.1921 8.35384C32.021 12.3382 32.6785 17.3785 31.0449 22.2195Z" fill="#96EBE6"/>
<path d="M30.8258 7.19837C27.6383 2.73587 22.4785 0 17 0V34C23.7535 34 29.9293 29.8098 32.5789 23.6339L32.8777 23.0363C34.8689 17.3705 34.1714 11.9278 30.8258 7.19837ZM17.9961 31.8085V2.17142C21.064 3.18743 23.634 8.83196 23.9327 15.5656C24.2117 21.7812 22.6578 27.6183 19.9683 30.4473C19.3308 31.1046 18.6735 31.5894 17.9961 31.8085ZM31.0449 22.2195C28.8137 26.9211 25.666 29.8163 22.0204 31.1113C24.6898 27.7445 26.2039 21.7414 25.9249 15.4859C25.6859 10.1867 24.1917 5.61804 22.0203 2.86875C24.8691 3.90462 27.3992 5.82383 29.1921 8.35384C32.021 12.3382 32.6785 17.3785 31.0449 22.2195Z" fill="#00C8C8"/>
<path d="M30.9453 10.0273H3.05469C1.40111 10.0273 0 11.362 0 13.0156V20.9844C0 22.6378 1.40111 23.9727 3.05469 23.9727H30.9453C32.5989 23.9727 34 22.6378 34 20.9844V13.0156C34 11.362 32.5989 10.0273 30.9453 10.0273Z" fill="#0053BF"/>
<path d="M34 13.0156V20.9844C34 22.6378 32.5989 23.9727 30.9453 23.9727H17V10.0273H30.9453C32.5989 10.0273 34 11.362 34 13.0156Z" fill="#05377F"/>
<path d="M21.8809 15.4458L19.8887 19.4302C19.7094 19.7689 19.3708 19.988 18.9922 19.988C18.6137 19.988 18.2751 19.7689 18.0958 19.4302L17.0001 17.2388L15.9043 19.4302C15.5657 20.1076 14.45 20.1076 14.1113 19.4302L12.1191 15.4458C11.8801 14.9677 12.0793 14.3701 12.5774 14.1111C13.0555 13.872 13.6531 14.0712 13.9121 14.5692L15.0079 16.7607L16.1036 14.5692C16.2829 14.2306 16.6415 14.0513 17.0001 14.0513C17.3586 14.0513 17.7172 14.2306 17.8965 14.5692L18.9922 16.7607L20.0879 14.5692C20.3469 14.0712 20.9446 13.872 21.4226 14.1111C21.9207 14.3701 22.12 14.9677 21.8809 15.4458Z" fill="#E1F1FA"/>
<path d="M28.9532 19.988C28.5757 19.988 28.2314 19.775 28.0621 19.4375L26.961 17.2352L25.8598 19.4375C25.5213 20.1126 24.4163 20.1126 24.0777 19.4375L22.1692 15.6194C22.0457 15.4677 21.9659 15.28 21.9523 15.0737C21.9173 14.5251 22.3034 14.0533 22.852 14.0173C23.2684 14.0076 23.6886 14.2041 23.8676 14.5621L24.9688 16.7643L26.0699 14.5621C26.4085 13.887 27.5135 13.887 27.852 14.5621L28.9532 16.7643L30.0543 14.5621C30.3014 14.0689 30.8996 13.8734 31.3909 14.1165C31.8831 14.3626 32.0825 14.9609 31.8364 15.4531L29.8442 19.4375C29.6749 19.775 29.3306 19.988 28.9532 19.988Z" fill="#BFE1FF"/>
<path d="M11.0877 14.0134C10.6957 14.0095 10.3114 14.2041 10.1324 14.5621L9.03126 16.7643L7.93011 14.5621C7.57132 13.8469 6.50291 13.8523 6.14803 14.5621L5.04688 16.7643L3.94573 14.5621C3.69864 14.0689 3.09945 13.8734 2.60918 14.1165C2.11697 14.3626 1.91756 14.9609 2.16366 15.4531L4.15584 19.4375C4.32511 19.775 4.66943 19.988 5.04688 19.988C5.42434 19.988 5.76865 19.775 5.93792 19.4375L7.03907 17.2352L8.14022 19.4375C8.30949 19.775 8.65381 19.988 9.03126 19.988C9.40871 19.988 9.75303 19.775 9.9223 19.4375L11.7987 15.6846C11.9408 15.5231 12.0322 15.3101 12.0478 15.0737C12.0828 14.5251 11.6363 14.0494 11.0877 14.0134Z" fill="#E1F1FA"/>
<path d="M21.8809 15.4458L19.8887 19.4302C19.7094 19.7689 19.3707 19.988 18.9922 19.988C18.6137 19.988 18.275 19.7689 18.0957 19.4302L17 17.2388V14.0513C17.3586 14.0513 17.7172 14.2306 17.8965 14.5692L18.9922 16.7607L20.0879 14.5692C20.3469 14.0712 20.9445 13.872 21.4226 14.1111C21.9206 14.3701 22.1199 14.9677 21.8809 15.4458Z" fill="#BFE1FF"/>
</g>
<defs>
<clipPath id="clip0_114_886">
<rect width="34" height="34" fill="white"/>
</clipPath>
</defs>
</svg>
